<mxfile host="app.diagrams.net" modified="2024-06-26T16:03:41.606Z" agent="Mozilla/5.0 (Windows NT 10.0; Win64; x64; rv:127.0) Gecko/20100101 Firefox/127.0" etag="pDjtX8OnsN_UWQu7IfM6" version="24.6.3" type="device">
  <diagram name="Page-1" id="OOfWrGtU2Becbj-eDRDJ">
    <mxGraphModel dx="2243" dy="779" grid="1" gridSize="10" guides="1" tooltips="1" connect="1" arrows="1" fold="1" page="1" pageScale="1" pageWidth="850" pageHeight="1100" math="0" shadow="0">
      <root>
        <mxCell id="0" />
        <mxCell id="1" parent="0" />
        <mxCell id="FoATxUUiLB6w55xuutfq-18" value="" style="rounded=0;whiteSpace=wrap;html=1;" parent="1" vertex="1">
          <mxGeometry x="-220" width="1220" height="800" as="geometry" />
        </mxCell>
        <mxCell id="Hf9Gl9dVcP0h7RCYdBk0-2" value="FH Cluster" style="rounded=0;whiteSpace=wrap;html=1;align=left;verticalAlign=top;fillColor=#d5e8d4;strokeColor=#82b366;" parent="1" vertex="1">
          <mxGeometry x="-40" y="30" width="1010" height="740" as="geometry" />
        </mxCell>
        <mxCell id="Hf9Gl9dVcP0h7RCYdBk0-1" value="&lt;div&gt;Jupyter Notebook&lt;br&gt;&lt;/div&gt;" style="rounded=0;whiteSpace=wrap;html=1;align=left;verticalAlign=top;fillColor=#ffe6cc;strokeColor=#d79b00;" parent="1" vertex="1">
          <mxGeometry y="65" width="740" height="675" as="geometry" />
        </mxCell>
        <mxCell id="Hf9Gl9dVcP0h7RCYdBk0-4" value="export_emissions1.csv" style="shape=image;html=1;verticalAlign=top;verticalLabelPosition=bottom;labelBackgroundColor=#ffffff;imageAspect=0;aspect=fixed;image=https://cdn2.iconfinder.com/data/icons/simple-files/128/csv1.png" parent="1" vertex="1">
          <mxGeometry x="-150" y="500" width="60" height="60" as="geometry" />
        </mxCell>
        <mxCell id="Hf9Gl9dVcP0h7RCYdBk0-12" style="edgeStyle=orthogonalEdgeStyle;rounded=0;orthogonalLoop=1;jettySize=auto;html=1;" parent="1" source="Hf9Gl9dVcP0h7RCYdBk0-6" target="Hf9Gl9dVcP0h7RCYdBk0-9" edge="1">
          <mxGeometry relative="1" as="geometry" />
        </mxCell>
        <mxCell id="Hf9Gl9dVcP0h7RCYdBk0-6" value="&lt;div&gt;https://www.iqair.com/world&amp;nbsp;&lt;/div&gt;&lt;div&gt;-air-quality-ranking&lt;/div&gt;" style="shape=image;html=1;verticalAlign=top;verticalLabelPosition=bottom;labelBackgroundColor=#ffffff;imageAspect=0;aspect=fixed;image=https://cdn1.iconfinder.com/data/icons/seo-and-web-development-6/32/development_computer_website_check_result-128.png" parent="1" vertex="1">
          <mxGeometry x="-150" y="280" width="60" height="60" as="geometry" />
        </mxCell>
        <mxCell id="Hf9Gl9dVcP0h7RCYdBk0-7" value="https://archive-api.open-meteo.com" style="sketch=0;points=[[0,0,0],[0.25,0,0],[0.5,0,0],[0.75,0,0],[1,0,0],[0,1,0],[0.25,1,0],[0.5,1,0],[0.75,1,0],[1,1,0],[0,0.25,0],[0,0.5,0],[0,0.75,0],[1,0.25,0],[1,0.5,0],[1,0.75,0]];outlineConnect=0;fontColor=#232F3E;fillColor=#8C4FFF;strokeColor=#ffffff;dashed=0;verticalLabelPosition=bottom;verticalAlign=top;align=center;html=1;fontSize=12;fontStyle=0;aspect=fixed;shape=mxgraph.aws4.resourceIcon;resIcon=mxgraph.aws4.api_gateway;" parent="1" vertex="1">
          <mxGeometry x="-150" y="150" width="60" height="60" as="geometry" />
        </mxCell>
        <mxCell id="Hf9Gl9dVcP0h7RCYdBk0-9" value="Webscraping producer" style="rounded=0;whiteSpace=wrap;html=1;align=left;verticalAlign=top;" parent="1" vertex="1">
          <mxGeometry x="20" y="253.75" width="290" height="112.5" as="geometry" />
        </mxCell>
        <mxCell id="Hf9Gl9dVcP0h7RCYdBk0-14" value="BeautifulSoup" style="shape=folder;tabWidth=80;tabHeight=20;tabPosition=left;html=1;whiteSpace=wrap;align=center;verticalAlign=bottom;" parent="1" vertex="1">
          <mxGeometry x="30" y="302.5" width="80" height="47.5" as="geometry" />
        </mxCell>
        <mxCell id="Hf9Gl9dVcP0h7RCYdBk0-15" value="Kafka-Python" style="shape=folder;tabWidth=80;tabHeight=20;tabPosition=left;html=1;whiteSpace=wrap;align=center;verticalAlign=bottom;" parent="1" vertex="1">
          <mxGeometry x="125" y="302.5" width="85" height="47.5" as="geometry" />
        </mxCell>
        <mxCell id="Hf9Gl9dVcP0h7RCYdBk0-19" value="&lt;div&gt;parquet file&lt;/div&gt;" style="verticalLabelPosition=bottom;html=1;verticalAlign=top;strokeWidth=1;align=center;outlineConnect=0;dashed=0;outlineConnect=0;shape=mxgraph.aws3d.file;aspect=fixed;strokeColor=#292929;" parent="1" vertex="1">
          <mxGeometry x="830" y="165.65" width="30.8" height="70.6" as="geometry" />
        </mxCell>
        <mxCell id="Hf9Gl9dVcP0h7RCYdBk0-20" value="&lt;div&gt;parquet file&lt;/div&gt;" style="verticalLabelPosition=bottom;html=1;verticalAlign=top;strokeWidth=1;align=center;outlineConnect=0;dashed=0;outlineConnect=0;shape=mxgraph.aws3d.file;aspect=fixed;strokeColor=#292929;" parent="1" vertex="1">
          <mxGeometry x="840" y="394.1" width="30.8" height="70.6" as="geometry" />
        </mxCell>
        <mxCell id="Hf9Gl9dVcP0h7RCYdBk0-21" value="&lt;div&gt;parquet file&lt;/div&gt;" style="verticalLabelPosition=bottom;html=1;verticalAlign=top;strokeWidth=1;align=center;outlineConnect=0;dashed=0;outlineConnect=0;shape=mxgraph.aws3d.file;aspect=fixed;strokeColor=#292929;" parent="1" vertex="1">
          <mxGeometry x="840" y="584.7" width="30.8" height="70.6" as="geometry" />
        </mxCell>
        <mxCell id="Hf9Gl9dVcP0h7RCYdBk0-26" value="Endabgabe" style="rounded=0;whiteSpace=wrap;html=1;align=left;verticalAlign=top;fillColor=#eeeeee;strokeColor=#36393d;" parent="1" vertex="1">
          <mxGeometry x="320" y="100" width="400" height="620" as="geometry" />
        </mxCell>
        <mxCell id="Hf9Gl9dVcP0h7RCYdBk0-39" style="edgeStyle=orthogonalEdgeStyle;rounded=0;orthogonalLoop=1;jettySize=auto;html=1;fillColor=#eeeeee;strokeColor=#36393d;" parent="1" source="Hf9Gl9dVcP0h7RCYdBk0-28" target="Hf9Gl9dVcP0h7RCYdBk0-37" edge="1">
          <mxGeometry relative="1" as="geometry" />
        </mxCell>
        <mxCell id="Hf9Gl9dVcP0h7RCYdBk0-28" value="&lt;div&gt;Consumer&lt;br&gt;&lt;/div&gt;" style="rounded=0;whiteSpace=wrap;html=1;verticalAlign=top;align=left;fillColor=#eeeeee;strokeColor=#36393d;" parent="1" vertex="1">
          <mxGeometry x="340" y="270" width="370" height="80" as="geometry" />
        </mxCell>
        <mxCell id="Hf9Gl9dVcP0h7RCYdBk0-29" value="Kafka-Python" style="shape=folder;tabWidth=80;tabHeight=20;tabPosition=left;html=1;whiteSpace=wrap;align=center;verticalAlign=bottom;fillColor=#eeeeee;strokeColor=#36393d;" parent="1" vertex="1">
          <mxGeometry x="360" y="290" width="80" height="40" as="geometry" />
        </mxCell>
        <mxCell id="Hf9Gl9dVcP0h7RCYdBk0-30" value="Pyspark" style="shape=folder;tabWidth=80;tabHeight=20;tabPosition=left;html=1;whiteSpace=wrap;align=center;verticalAlign=bottom;fillColor=#eeeeee;strokeColor=#36393d;" parent="1" vertex="1">
          <mxGeometry x="480" y="290" width="80" height="40" as="geometry" />
        </mxCell>
        <mxCell id="Hf9Gl9dVcP0h7RCYdBk0-31" value="json" style="shape=folder;tabWidth=80;tabHeight=20;tabPosition=left;html=1;whiteSpace=wrap;align=center;verticalAlign=bottom;fillColor=#eeeeee;strokeColor=#36393d;" parent="1" vertex="1">
          <mxGeometry x="600" y="290" width="80" height="40" as="geometry" />
        </mxCell>
        <mxCell id="Hf9Gl9dVcP0h7RCYdBk0-34" style="edgeStyle=orthogonalEdgeStyle;rounded=0;orthogonalLoop=1;jettySize=auto;html=1;entryX=0;entryY=0.5;entryDx=0;entryDy=0;" parent="1" source="Hf9Gl9dVcP0h7RCYdBk0-9" target="Hf9Gl9dVcP0h7RCYdBk0-28" edge="1">
          <mxGeometry relative="1" as="geometry" />
        </mxCell>
        <mxCell id="454OFG5cgBxQ4rqgQnV9-6" style="edgeStyle=orthogonalEdgeStyle;rounded=0;orthogonalLoop=1;jettySize=auto;html=1;" edge="1" parent="1" source="Hf9Gl9dVcP0h7RCYdBk0-37" target="Hf9Gl9dVcP0h7RCYdBk0-19">
          <mxGeometry relative="1" as="geometry">
            <Array as="points">
              <mxPoint x="770" y="430" />
              <mxPoint x="770" y="201" />
            </Array>
          </mxGeometry>
        </mxCell>
        <mxCell id="454OFG5cgBxQ4rqgQnV9-7" style="edgeStyle=orthogonalEdgeStyle;rounded=0;orthogonalLoop=1;jettySize=auto;html=1;" edge="1" parent="1" source="Hf9Gl9dVcP0h7RCYdBk0-37" target="Hf9Gl9dVcP0h7RCYdBk0-20">
          <mxGeometry relative="1" as="geometry">
            <Array as="points">
              <mxPoint x="855" y="430" />
            </Array>
          </mxGeometry>
        </mxCell>
        <mxCell id="454OFG5cgBxQ4rqgQnV9-8" style="edgeStyle=orthogonalEdgeStyle;rounded=0;orthogonalLoop=1;jettySize=auto;html=1;" edge="1" parent="1" source="Hf9Gl9dVcP0h7RCYdBk0-37" target="Hf9Gl9dVcP0h7RCYdBk0-21">
          <mxGeometry relative="1" as="geometry">
            <Array as="points">
              <mxPoint x="770" y="430" />
              <mxPoint x="770" y="620" />
            </Array>
          </mxGeometry>
        </mxCell>
        <mxCell id="Hf9Gl9dVcP0h7RCYdBk0-37" value="Data Cleaning" style="rounded=0;whiteSpace=wrap;html=1;align=left;verticalAlign=top;fillColor=#eeeeee;strokeColor=#36393d;" parent="1" vertex="1">
          <mxGeometry x="340" y="394.7" width="370" height="70" as="geometry" />
        </mxCell>
        <mxCell id="Hf9Gl9dVcP0h7RCYdBk0-38" value="pandas" style="shape=folder;tabWidth=80;tabHeight=20;tabPosition=left;html=1;whiteSpace=wrap;align=center;verticalAlign=bottom;fillColor=#eeeeee;strokeColor=#36393d;" parent="1" vertex="1">
          <mxGeometry x="480" y="409.7" width="80" height="40" as="geometry" />
        </mxCell>
        <mxCell id="Hf9Gl9dVcP0h7RCYdBk0-44" value="&lt;div align=&quot;left&quot;&gt;Visualisierung&lt;/div&gt;" style="rounded=0;whiteSpace=wrap;html=1;align=left;verticalAlign=top;fillColor=#eeeeee;strokeColor=#36393d;" parent="1" vertex="1">
          <mxGeometry x="350" y="540" width="340" height="160" as="geometry" />
        </mxCell>
        <mxCell id="Hf9Gl9dVcP0h7RCYdBk0-45" value="pandas" style="shape=folder;tabWidth=80;tabHeight=20;tabPosition=left;html=1;whiteSpace=wrap;align=center;verticalAlign=bottom;fillColor=#eeeeee;strokeColor=#36393d;" parent="1" vertex="1">
          <mxGeometry x="370" y="600" width="80" height="40" as="geometry" />
        </mxCell>
        <mxCell id="Hf9Gl9dVcP0h7RCYdBk0-46" value="Pyspark" style="shape=folder;tabWidth=80;tabHeight=20;tabPosition=left;html=1;whiteSpace=wrap;align=center;verticalAlign=bottom;fillColor=#eeeeee;strokeColor=#36393d;" parent="1" vertex="1">
          <mxGeometry x="480" y="600" width="80" height="40" as="geometry" />
        </mxCell>
        <mxCell id="Hf9Gl9dVcP0h7RCYdBk0-47" value="MathplotLib" style="shape=folder;tabWidth=80;tabHeight=20;tabPosition=left;html=1;whiteSpace=wrap;align=center;verticalAlign=bottom;fillColor=#eeeeee;strokeColor=#36393d;" parent="1" vertex="1">
          <mxGeometry x="590" y="600" width="80" height="40" as="geometry" />
        </mxCell>
        <mxCell id="Hf9Gl9dVcP0h7RCYdBk0-48" style="edgeStyle=orthogonalEdgeStyle;rounded=0;orthogonalLoop=1;jettySize=auto;html=1;entryX=1;entryY=0.5;entryDx=0;entryDy=0;" parent="1" source="Hf9Gl9dVcP0h7RCYdBk0-21" target="Hf9Gl9dVcP0h7RCYdBk0-44" edge="1">
          <mxGeometry relative="1" as="geometry" />
        </mxCell>
        <mxCell id="Hf9Gl9dVcP0h7RCYdBk0-41" style="edgeStyle=orthogonalEdgeStyle;rounded=0;orthogonalLoop=1;jettySize=auto;html=1;entryX=0;entryY=0.5;entryDx=0;entryDy=0;" parent="1" source="Hf9Gl9dVcP0h7RCYdBk0-4" target="Hf9Gl9dVcP0h7RCYdBk0-37" edge="1">
          <mxGeometry relative="1" as="geometry">
            <Array as="points">
              <mxPoint x="290" y="530" />
              <mxPoint x="290" y="430" />
            </Array>
          </mxGeometry>
        </mxCell>
        <mxCell id="Hf9Gl9dVcP0h7RCYdBk0-51" value="requests" style="shape=folder;tabWidth=80;tabHeight=20;tabPosition=left;html=1;whiteSpace=wrap;align=center;verticalAlign=bottom;" parent="1" vertex="1">
          <mxGeometry x="220" y="302.5" width="80" height="47.5" as="geometry" />
        </mxCell>
        <mxCell id="454OFG5cgBxQ4rqgQnV9-2" style="edgeStyle=orthogonalEdgeStyle;rounded=0;orthogonalLoop=1;jettySize=auto;html=1;entryX=0.5;entryY=0;entryDx=0;entryDy=0;" edge="1" parent="1" source="454OFG5cgBxQ4rqgQnV9-1" target="Hf9Gl9dVcP0h7RCYdBk0-28">
          <mxGeometry relative="1" as="geometry" />
        </mxCell>
        <mxCell id="454OFG5cgBxQ4rqgQnV9-1" value="API Producer" style="rounded=0;whiteSpace=wrap;html=1;align=left;verticalAlign=top;fillColor=#f5f5f5;fontColor=#333333;strokeColor=#666666;" vertex="1" parent="1">
          <mxGeometry x="340" y="140" width="370" height="80" as="geometry" />
        </mxCell>
        <mxCell id="454OFG5cgBxQ4rqgQnV9-4" style="edgeStyle=orthogonalEdgeStyle;rounded=0;orthogonalLoop=1;jettySize=auto;html=1;" edge="1" parent="1" source="Hf9Gl9dVcP0h7RCYdBk0-7" target="454OFG5cgBxQ4rqgQnV9-1">
          <mxGeometry relative="1" as="geometry" />
        </mxCell>
        <mxCell id="454OFG5cgBxQ4rqgQnV9-9" value="Kafka-Python" style="shape=folder;tabWidth=80;tabHeight=20;tabPosition=left;html=1;whiteSpace=wrap;align=center;verticalAlign=bottom;fillColor=#eeeeee;strokeColor=#36393d;" vertex="1" parent="1">
          <mxGeometry x="350" y="170" width="80" height="40" as="geometry" />
        </mxCell>
        <mxCell id="454OFG5cgBxQ4rqgQnV9-10" value="json" style="shape=folder;tabWidth=80;tabHeight=20;tabPosition=left;html=1;whiteSpace=wrap;align=center;verticalAlign=bottom;fillColor=#eeeeee;strokeColor=#36393d;" vertex="1" parent="1">
          <mxGeometry x="620" y="170" width="80" height="40" as="geometry" />
        </mxCell>
        <mxCell id="454OFG5cgBxQ4rqgQnV9-12" value="time" style="shape=folder;tabWidth=80;tabHeight=20;tabPosition=left;html=1;whiteSpace=wrap;align=center;verticalAlign=bottom;fillColor=#eeeeee;strokeColor=#36393d;" vertex="1" parent="1">
          <mxGeometry x="440" y="170" width="80" height="40" as="geometry" />
        </mxCell>
        <mxCell id="454OFG5cgBxQ4rqgQnV9-13" value="requests" style="shape=folder;tabWidth=80;tabHeight=20;tabPosition=left;html=1;whiteSpace=wrap;align=center;verticalAlign=bottom;fillColor=#eeeeee;strokeColor=#36393d;" vertex="1" parent="1">
          <mxGeometry x="530" y="170" width="80" height="40" as="geometry" />
        </mxCell>
      </root>
    </mxGraphModel>
  </diagram>
</mxfile>
